<?xml version="1.0" standalone="no"?>
<!DOCTYPE svg PUBLIC "-//W3C//DTD SVG 20010904//EN"
 "http://www.w3.org/TR/2001/REC-SVG-20010904/DTD/svg10.dtd">
<svg version="1.0" xmlns="http://www.w3.org/2000/svg"
 width="1159.000000pt" height="1159.000000pt" viewBox="0 0 1159.000000 1159.000000"
 preserveAspectRatio="xMidYMid meet">
<metadata>
Created by potrace 1.11, written by Peter Selinger 2001-2013
</metadata>
<g transform="translate(0.000000,1159.000000) scale(0.100000,-0.100000)"
fill="#000000" stroke="none">
<path d="M5767 9648 c-13 -18 -44 -60 -67 -93 -24 -33 -46 -62 -50 -65 -3 -3
-37 -48 -75 -100 -38 -52 -72 -97 -75 -100 -3 -3 -86 -113 -185 -245 -99 -132
-182 -242 -185 -245 -3 -3 -17 -21 -30 -40 -13 -19 -27 -37 -30 -40 -3 -3 -57
-75 -120 -160 -63 -85 -117 -157 -121 -160 -5 -5 -553 -736 -1298 -1734 -172
-230 -317 -424 -322 -430 -12 -14 -257 -339 -284 -376 -11 -15 -376 -502 -811
-1081 -434 -580 -879 -1173 -988 -1319 -108 -146 -206 -276 -216 -290 -224
-294 -844 -1129 -847 -1140 -9 -39 -2 -39 465 -40 396 -1 455 1 484 15 24 11
89 90 228 277 185 247 400 531 417 553 5 6 62 82 128 170 66 88 122 162 125
165 3 3 30 39 60 80 30 41 57 77 60 80 3 3 57 75 120 160 63 85 119 160 123
165 10 12 439 586 1002 1340 237 317 435 582 440 588 11 13 60 79 620 827 421
564 405 542 442 591 16 20 37 48 48 63 11 15 78 105 149 199 71 95 284 378
473 630 251 335 349 457 363 457 11 0 29 -10 39 -22 11 -13 220 -291 465 -618
245 -327 454 -606 465 -620 10 -14 182 -243 381 -510 393 -525 531 -709 543
-725 4 -5 34 -46 67 -90 32 -44 67 -91 78 -105 10 -14 196 -261 413 -550 216
-289 399 -532 406 -540 7 -8 61 -80 121 -160 60 -80 368 -491 685 -913 317
-423 577 -775 577 -783 0 -12 -66 -14 -444 -14 -408 0 -445 1 -465 18 -12 9
-81 98 -155 197 -74 99 -138 185 -143 190 -4 6 -67 89 -139 185 -149 200
-1707 2277 -2404 3205 -327 437 -471 621 -486 623 -17 2 -33 -13 -70 -65 -26
-37 -85 -114 -131 -171 -45 -57 -100 -129 -120 -160 -37 -56 -223 -304 -648
-867 -117 -154 -289 -383 -384 -510 -94 -126 -177 -237 -184 -245 -6 -8 -37
-49 -67 -90 -30 -41 -58 -79 -63 -85 -4 -5 -38 -51 -75 -100 -160 -216 -657
-880 -662 -885 -3 -3 -17 -21 -30 -40 -13 -19 -27 -37 -30 -40 -3 -3 -113
-149 -245 -325 -132 -176 -247 -329 -256 -340 -9 -11 -195 -258 -413 -550
-218 -291 -410 -547 -426 -567 -17 -20 -30 -43 -30 -50 1 -40 -43 -39 1432
-39 892 0 1424 4 1440 10 17 6 95 102 222 273 108 145 212 283 231 308 19 25
134 179 255 342 122 163 230 300 241 303 26 9 40 -4 115 -105 35 -47 67 -89
71 -95 5 -5 60 -80 123 -165 63 -85 120 -162 127 -170 16 -20 388 -517 411
-550 47 -67 101 -126 124 -137 26 -13 126 -15 706 -14 216 1 243 3 249 18 3 9
0 26 -8 39 -28 46 -1823 2430 -1852 2462 -36 38 -67 41 -100 10 -13 -13 -161
-205 -328 -428 -167 -222 -310 -411 -316 -420 -14 -17 -328 -438 -530 -711
-142 -191 -182 -229 -275 -253 -29 -7 -78 -12 -108 -10 -30 1 -205 3 -387 3
-183 1 -333 4 -333 9 0 15 41 73 210 297 209 276 1438 1916 1813 2417 147 197
276 362 287 368 20 11 37 -1 75 -52 23 -30 653 -872 934 -1248 166 -223 313
-418 326 -435 56 -74 482 -642 495 -662 14 -21 639 -853 663 -883 7 -8 43 -58
82 -110 38 -52 74 -100 80 -106 5 -6 52 -69 104 -139 77 -105 101 -130 137
-147 43 -18 82 -19 1440 -19 967 -1 1399 2 1407 10 19 19 -10 84 -75 168 -35
44 -191 253 -348 463 -309 415 -610 820 -640 860 -10 14 -215 286 -455 605
-239 319 -441 587 -448 595 -7 8 -43 58 -82 110 -38 52 -72 97 -75 100 -4 3
-433 574 -955 1270 -921 1227 -1077 1435 -1365 1815 -76 99 -168 225 -206 280
-38 55 -119 165 -181 245 -62 80 -285 375 -495 655 -272 362 -389 511 -405
513 -14 2 -29 -7 -46 -30z"/>
</g>
</svg>
